HIERARCHY
ROOT Hips
{
	OFFSET 0.000000 0.000000 0.000000
	CHANNELS 6 Xposition Yposition Zposition Xrotation Yrotation Zrotation
	JOINT LeftUpLeg_virtual
	{
		OFFSET 0.000000 0.000000 0.000000
		CHANNELS 3 Xrotation Yrotation Zrotation
		JOINT LeftUpLeg
		{
			OFFSET 10.205400 -3.823500 0.155100
			CHANNELS 3 Xrotation Yrotation Zrotation
			JOINT LeftLeg
			{
				OFFSET 0.708757 -12.982077 0.567790
				CHANNELS 3 Xrotation Yrotation Zrotation
				JOINT LeftFoot
				{
					OFFSET -0.708756 -10.717838 -2.184338
					CHANNELS 3 Xrotation Yrotation Zrotation
					JOINT LeftToeBase
					{
						OFFSET 0.108149 -7.191104 7.560241
						CHANNELS 3 Xrotation Yrotation Zrotation
						JOINT LeftToe_End
						{
							OFFSET 0.070230 0.081724 4.490308
							CHANNELS 3 Xrotation Yrotation Zrotation
							End Site
							{
								OFFSET 0 0 0
							}
						}
					}
				}
			}
		}
	}
	JOINT RightUpLeg_virtual
	{
		OFFSET 0.000000 0.000000 0.000000
		CHANNELS 3 Xrotation Yrotation Zrotation
		JOINT RightUpLeg
		{
			OFFSET -10.205400 -3.823500 0.005500
			CHANNELS 3 Xrotation Yrotation Zrotation
			JOINT RightLeg
			{
				OFFSET -0.708756 -12.982134 0.610632
				CHANNELS 3 Xrotation Yrotation Zrotation
				JOINT RightFoot
				{
					OFFSET 0.708754 -10.717769 -1.945823
					CHANNELS 3 Xrotation Yrotation Zrotation
					JOINT RightToeBase
					{
						OFFSET -0.108140 -7.191069 7.372968
						CHANNELS 3 Xrotation Yrotation Zrotation
						JOINT RightToe_End
						{
							OFFSET -0.070227 0.081735 4.479403
							CHANNELS 3 Xrotation Yrotation Zrotation
							End Site
							{
								OFFSET 0 0 0
							}
						}
					}
				}
			}
		}
	}
	JOINT Spine_virtual
	{
		OFFSET 0.000000 0.000000 0.000000
		CHANNELS 3 Xrotation Yrotation Zrotation
		JOINT Spine
		{
			OFFSET 0.000000 6.876099 0.125700
			CHANNELS 3 Xrotation Yrotation Zrotation
			JOINT Spine1
			{
				OFFSET 0.000000 5.730043 0.104720
				CHANNELS 3 Xrotation Yrotation Zrotation
				JOINT Spine1_split
				{
					OFFSET 0.000000 5.730043 0.104720
					CHANNELS 3 Xrotation Yrotation Zrotation
					JOINT Spine2
					{
						OFFSET 0.000000 5.730043 0.104720
						CHANNELS 3 Xrotation Yrotation Zrotation
						JOINT Neck_virtual
						{
							OFFSET 0.000000 0.000000 0.000000
							CHANNELS 3 Xrotation Yrotation Zrotation
							JOINT Neck
							{
								OFFSET 0.000000 10.314075 0.188496
								CHANNELS 3 Xrotation Yrotation Zrotation
								JOINT Head
								{
									OFFSET 0.000000 7.643700 -2.377400
									CHANNELS 3 Xrotation Yrotation Zrotation
									JOINT HeadTop_End
									{
										OFFSET 0.000000 43.788605 -13.619600
										CHANNELS 3 Xrotation Yrotation Zrotation
										End Site
										{
											OFFSET 0 0 0
										}
									}
								}
							}
						}
						JOINT LeftShoulder_virtual
						{
							OFFSET 0.000000 0.000000 0.000000
							CHANNELS 3 Xrotation Yrotation Zrotation
							JOINT LeftShoulder
							{
								OFFSET 2.196100 4.412489 0.087492
								CHANNELS 3 Xrotation Yrotation Zrotation
								JOINT LeftShoulder_split
								{
									OFFSET 2.196100 4.412489 0.087492
									CHANNELS 3 Xrotation Yrotation Zrotation
									JOINT LeftArm
									{
										OFFSET 8.771219 -2.981674 -0.026999
										CHANNELS 3 Xrotation Yrotation Zrotation
										JOINT LeftForeArm
										{
											OFFSET 8.512804 0.000000 -0.000000
											CHANNELS 3 Xrotation Yrotation Zrotation
											JOINT LeftHand
											{
												OFFSET 18.484802 0.000000 -0.000000
												CHANNELS 3 Xrotation Yrotation Zrotation
												End Site
												{
													OFFSET 0 0 0
												}
											}
										}
									}
								}
							}
						}
						JOINT RightShoulder_virtual
						{
							OFFSET 0.000000 0.000000 0.000000
							CHANNELS 3 Xrotation Yrotation Zrotation
							JOINT RightShoulder
							{
								OFFSET -2.196100 4.412496 0.070690
								CHANNELS 3 Xrotation Yrotation Zrotation
								JOINT RightShoulder_split
								{
									OFFSET -2.196100 4.412496 0.070690
									CHANNELS 3 Xrotation Yrotation Zrotation
									JOINT RightArm
									{
										OFFSET -8.771282 -2.981682 -0.094208
										CHANNELS 3 Xrotation Yrotation Zrotation
										JOINT RightForeArm
										{
											OFFSET -8.494598 0.000000 0.000000
											CHANNELS 3 Xrotation Yrotation Zrotation
											JOINT RightHand
											{
												OFFSET -18.483803 0.000000 0.000001
												CHANNELS 3 Xrotation Yrotation Zrotation
												End Site
												{
													OFFSET 0 0 0
												}
											}
										}
									}
								}
							}
						}
					}
				}
			}
		}
	}
}
MOTION
Frames: 9
Frame Time: 0.03333333
-1.337881 31.273739 21.726389 0.000000 0.000000 0.000000 27.213410 5.168684 -14.420100 -65.280715 -4.682341 17.042278 43.519291 2.260442 -12.404605 3.133469 -0.678770 12.488347 -1.077729 0.042588 -0.264377 0.000000 0.000000 0.000000 27.873481 10.068093 -16.058050 -10.007040 -21.031995 -26.234588 87.988744 3.116694 -5.670138 32.974985 0.156017 16.203370 14.002146 0.448388 -1.321054 0.000000 0.000000 0.000000 26.694862 9.466921 -16.422732 6.566117 12.307653 -10.026987 12.569040 11.696412 -7.338627 1.492118 2.070903 0.206729 0.000000 0.000000 0.000000 12.028446 11.065863 -7.637922 -10.397569 -7.570660 7.584718 -25.647505 -31.692044 19.508818 0.000000 0.000000 0.000000 11.609839 11.724149 -7.611143 0.103933 4.408165 4.199888 -3.493683 0.183187 -0.641031 32.812331 -41.243448 -14.700235 0.556832 -29.928468 -0.486594 0.000000 0.000000 0.000000 11.892037 11.154940 -7.978463 5.374255 14.273460 -6.490596 0.092737 5.172278 -0.764650 -17.735766 57.193965 33.597892 -1.906698 40.875185 -0.141820 0.000000 0.000000 0.000000 
-1.392327 31.213058 21.886353 0.000000 0.000000 0.000000 25.491610 5.877050 -13.787072 -64.057571 -3.221085 17.264679 44.177250 2.397312 -12.726485 0.811791 -0.376759 13.109972 -1.040794 -0.002864 0.147417 0.000000 0.000000 0.000000 25.991817 9.963214 -15.197618 -10.778729 -21.680448 -23.625723 83.724466 4.134086 -4.869892 28.149103 -1.107128 12.455804 15.649792 0.380449 -0.540898 0.000000 0.000000 0.000000 24.396152 9.802291 -15.702818 6.469408 11.258372 -10.512091 12.948282 10.810127 -7.467132 1.189940 2.317863 0.163905 0.000000 0.000000 0.000000 12.283740 10.306744 -7.775965 -10.587161 -7.277174 7.174803 -25.705320 -31.313713 20.111714 0.000000 0.000000 0.000000 11.678359 11.007536 -7.696845 0.181550 4.104791 5.101757 -3.553938 -1.055339 -1.342041 31.076466 -43.503947 -7.265171 0.678378 -27.921103 -0.321246 0.000000 0.000000 0.000000 12.058201 10.418508 -8.000972 5.091419 13.651355 -5.493986 0.686478 4.078787 -0.498699 -16.935454 53.322034 27.148151 -1.875434 39.493568 0.109330 0.000000 0.000000 0.000000 
-1.376345 31.211567 22.040648 0.000000 0.000000 0.000000 24.068021 6.638974 -13.410477 -62.706710 -1.685206 17.259763 44.680669 2.227962 -12.853386 -1.242298 -0.284738 13.532402 -1.110423 -0.017772 0.489959 0.000000 0.000000 0.000000 24.157134 10.162580 -14.618162 -10.571521 -21.986533 -20.808427 78.039125 5.240383 -4.248997 23.357480 -2.042855 6.549567 15.838302 0.603786 2.068805 0.000000 0.000000 0.000000 22.323462 10.106353 -15.205116 6.309766 10.174095 -10.880105 13.311239 9.623139 -7.582278 1.059330 2.223540 0.120149 0.000000 0.000000 0.000000 12.585342 9.275247 -7.914499 -10.806458 -7.094114 6.792174 -25.374242 -30.717311 20.842423 0.000000 0.000000 0.000000 11.860622 9.978567 -7.768820 0.258984 3.688769 5.890102 -3.443638 -2.033817 -1.990592 27.689023 -46.523181 -1.417501 0.731017 -25.247268 -0.063112 0.000000 0.000000 0.000000 12.383460 9.408218 -8.050537 4.991149 13.210603 -5.566642 1.061683 2.962278 -0.412138 -16.736166 50.102091 22.026476 -1.811076 37.012556 0.339740 0.000000 0.000000 0.000000 
-1.293620 31.266640 22.194942 0.000000 0.000000 0.000000 22.725194 7.380763 -13.270221 -61.157200 -0.259257 17.227728 45.132452 1.666728 -12.759765 -2.661642 -0.342583 13.633588 -1.337806 -0.003631 0.704151 0.000000 0.000000 0.000000 22.381616 10.513604 -14.321087 -10.376336 -21.727607 -18.666350 71.643145 7.116873 -4.250879 21.602956 -1.576695 1.884905 10.221368 0.445936 6.203842 0.000000 0.000000 0.000000 20.507319 10.392333 -14.974575 6.108739 8.902618 -11.141564 13.690365 8.056162 -7.612240 1.056805 1.974921 0.022393 0.000000 0.000000 0.000000 12.929400 7.851572 -7.955834 -10.927458 -6.956392 6.482820 -24.576481 -29.640186 21.708462 0.000000 0.000000 0.000000 12.198450 8.528877 -7.781141 0.330005 3.149284 6.511456 -3.382341 -2.429108 -2.412432 22.193791 -49.894580 2.163268 0.661769 -22.006933 0.236851 0.000000 0.000000 0.000000 12.838057 8.001010 -8.041459 5.048900 12.894826 -6.698145 1.233989 2.126470 -0.543578 -16.500547 47.543485 17.529467 -1.688523 34.490840 0.468057 0.000000 0.000000 0.000000 
-1.111096 31.361944 22.448881 0.000000 0.000000 0.000000 21.342374 7.795374 -13.316949 -59.426792 1.101079 17.356670 45.595467 0.881808 -12.453447 -3.630762 -0.463251 13.805469 -1.512654 0.007915 0.780713 0.000000 0.000000 0.000000 20.697469 10.873511 -14.333854 -10.796049 -20.998568 -17.608071 64.698414 9.900131 -4.868156 22.729920 0.253360 0.552600 -0.974215 -1.148815 10.952370 0.000000 0.000000 0.000000 18.712406 10.408816 -15.000965 5.925817 7.364331 -11.292199 14.072144 6.154063 -7.508788 1.186641 1.763461 -0.164154 0.000000 0.000000 0.000000 13.270173 6.040128 -7.850662 -10.822699 -6.768342 6.234581 -23.399122 -27.984209 22.675714 0.000000 0.000000 0.000000 12.661706 6.647205 -7.669777 0.374402 2.541325 7.044968 -3.231782 -2.372471 -2.449390 14.518493 -52.929837 3.057356 0.430087 -18.666487 0.513328 0.000000 0.000000 0.000000 13.370409 6.196274 -7.938509 5.217271 12.542577 -8.662978 1.303722 1.501141 -0.712409 -16.568543 45.557857 13.610733 -1.538042 32.962671 0.503370 0.000000 0.000000 0.000000 
-0.837512 31.446716 22.759813 0.000000 0.000000 0.000000 19.809685 7.880185 -13.594767 -57.534973 2.421957 17.802079 45.922890 0.082879 -11.980576 -4.490137 -0.569202 14.211920 -1.373756 0.026752 0.711486 0.000000 0.000000 0.000000 19.169177 11.221955 -14.662430 -11.484715 -20.116840 -17.310377 57.291910 13.088373 -5.585442 23.812080 2.617792 1.346776 -12.981767 -4.101301 14.915957 0.000000 0.000000 0.000000 16.892453 9.884890 -15.232538 5.759805 5.586433 -11.321430 14.421926 4.005865 -7.244783 1.345596 1.755327 -0.346068 0.000000 0.000000 0.000000 13.599176 3.926377 -7.569956 -10.522360 -6.494636 6.040755 -22.032913 -25.779390 23.644170 0.000000 0.000000 0.000000 13.141025 4.457396 -7.400230 0.381915 1.996982 7.523564 -3.076847 -2.053923 -2.060511 4.995550 -55.216253 1.427678 0.049921 -15.920461 0.705528 0.000000 0.000000 0.000000 13.878287 4.071987 -7.687929 5.373753 12.098685 -11.076239 1.201131 0.870071 -0.671663 -18.195228 44.141091 10.921266 -1.391486 32.747120 0.460255 0.000000 0.000000 0.000000 
-0.496861 31.489819 23.044619 0.000000 0.000000 0.000000 18.047279 7.515716 -14.063879 -55.506055 3.779031 18.628156 45.815939 -0.593853 -11.420046 -5.528338 -0.680998 14.672452 -1.113196 0.056679 0.659010 0.000000 0.000000 0.000000 17.851676 11.250655 -15.238540 -12.310149 -19.566728 -17.196285 50.066704 15.070946 -5.519942 22.506595 4.040186 2.545515 -20.763690 -6.925068 17.150178 0.000000 0.000000 0.000000 15.001756 8.699208 -15.632580 5.642768 3.684258 -11.192525 14.678804 1.758389 -6.835702 1.415723 2.157532 -0.352200 0.000000 0.000000 0.000000 13.871389 1.662233 -7.128779 -10.165362 -6.058429 5.807740 -20.759257 -23.115641 24.505969 0.000000 0.000000 0.000000 13.537367 2.147000 -6.969730 0.347168 1.551373 8.014980 -2.920647 -1.580276 -1.273472 -5.202749 -56.547744 -1.891942 -0.402001 -14.235860 0.790103 0.000000 0.000000 0.000000 14.246011 1.804903 -7.274025 5.403185 11.545607 -13.369267 1.140474 0.309660 -0.445862 -22.732936 43.200311 10.551769 -1.281163 33.805707 0.376962 0.000000 0.000000 0.000000 
-0.087975 31.529213 23.260666 0.000000 0.000000 0.000000 16.383279 6.572088 -14.726013 -53.327286 5.178782 19.696444 45.135662 -1.053422 -10.781604 -6.574725 -0.757797 14.917680 -1.025788 0.081242 0.773546 0.000000 0.000000 0.000000 16.645246 10.731623 -15.957730 -13.576919 -19.556775 -17.007441 43.057297 15.426416 -4.342460 19.306151 4.247869 3.821671 -22.180737 -8.005855 17.477102 0.000000 0.000000 0.000000 13.162488 6.864679 -16.161165 5.540935 1.836007 -10.843899 14.786986 -0.426395 -6.317031 1.483217 2.683245 -0.397273 0.000000 0.000000 0.000000 14.022598 -0.539036 -6.572963 -9.916677 -5.505163 5.476500 -19.803749 -20.282740 25.190086 0.000000 0.000000 0.000000 13.749972 -0.083536 -6.415124 0.267222 1.264651 8.562674 -2.690891 -1.472635 -0.170804 -14.656908 -57.048527 -5.782416 -0.821337 -13.816069 0.764050 0.000000 0.000000 0.000000 14.404601 -0.396042 -6.724085 5.291097 10.973097 -15.171631 1.006350 -0.316684 -0.050667 -30.962463 42.501511 13.523354 -1.245974 35.248643 0.322080 0.000000 0.000000 0.000000 
0.333553 31.619450 23.315313 0.000000 0.000000 0.000000 14.984764 5.019267 -15.562195 -51.084713 6.450053 20.936931 43.837086 -1.345903 -10.115864 -7.240173 -0.716560 14.533992 -1.139611 0.104662 1.059747 0.000000 0.000000 0.000000 15.530783 9.595299 -16.756450 -15.473488 -19.669417 -16.494135 36.025027 15.127240 -2.243067 15.775422 4.087215 6.286175 -18.639788 -6.976573 15.861253 0.000000 0.000000 0.000000 11.617754 4.643598 -16.811877 5.452735 0.218947 -10.214558 14.737663 -2.421186 -5.729815 1.539064 3.036990 -0.398472 0.000000 0.000000 0.000000 14.027894 -2.523319 -5.939937 -10.001203 -4.862645 5.020351 -19.213312 -17.557488 25.668717 0.000000 0.000000 0.000000 13.767507 -2.079385 -5.805900 0.161827 1.139838 9.195355 -2.473337 -1.399971 0.917491 -22.739904 -57.228345 -9.739922 -1.167164 -14.442331 0.666148 0.000000 0.000000 0.000000 14.329681 -2.371101 -6.075064 5.067713 10.494001 -16.199646 0.749873 -0.724119 0.219589 -42.605409 41.221284 20.071351 -1.281878 36.444981 0.346773 0.000000 0.000000 0.000000 
